<?xml version="1.0" encoding="UTF-8"?>
<svg width="80" height="80" viewBox="0 0 64 64" fill="none" xmlns="http://www.w3.org/2000/svg">
  <title>Snowflake</title>

  <!-- Background (indigo-600) -->

  <!-- Snowflake -->
  <g stroke="#FFFFFF" stroke-width="3.5" stroke-linecap="round" stroke-linejoin="round">
    <!-- Main axes -->
    <path d="M32 12V52"/>
    <path d="M12 32H52"/>
    <path d="M18 18L46 46"/>
    <path d="M46 18L18 46"/>

    <!-- Tips / branches -->
    <path d="M32 12L28 16"/>
    <path d="M32 12L36 16"/>

    <path d="M32 52L28 48"/>
    <path d="M32 52L36 48"/>

    <path d="M12 32L16 28"/>
    <path d="M12 32L16 36"/>

    <path d="M52 32L48 28"/>
    <path d="M52 32L48 36"/>

    <path d="M18 18L23 18"/>
    <path d="M18 18L18 23"/>

    <path d="M46 46L41 46"/>
    <path d="M46 46L46 41"/>

    <path d="M46 18L41 18"/>
    <path d="M46 18L46 23"/>

    <path d="M18 46L23 46"/>
    <path d="M18 46L18 41"/>
  </g>

  <!-- Center -->
  <circle cx="32" cy="32" r="3.5" fill="#FFFFFF"/>
</svg>